<svg version="1.1" id="Layer_1" xmlns="http://www.w3.org/2000/svg" xmlns:xlink="http://www.w3.org/1999/xlink" x="0px" y="0px"
	 width="100%" viewBox="0 0 1500 2250"  xml:space="preserve">
<path opacity="0.000000" stroke="none" 
	d="
M533.000000,2251.000000 
	C355.333344,2251.000000 178.166672,2251.000000 1.000000,2251.000000 
	C1.000000,1501.000000 1.000000,751.000000 1.000000,1.000000 
	C501.000000,1.000000 1001.000000,1.000000 1501.000000,1.000000 
	C1501.000000,751.000000 1501.000000,1501.000000 1501.000000,2251.000000 
	C1178.500000,2251.000000 856.000000,2251.000000 533.000000,2251.000000 
M348.975128,1231.524902 
	C363.824371,1246.038330 378.772583,1260.452148 393.500763,1275.087402 
	C418.472473,1299.901611 443.252258,1324.909058 468.219635,1349.727661 
	C480.040924,1361.478516 492.175476,1372.913696 504.052490,1384.609253 
	C531.222900,1411.364746 558.357178,1438.157104 585.424927,1465.016113 
	C591.969177,1471.509888 598.028259,1478.494263 604.602905,1484.955322 
	C625.305481,1505.300537 646.220154,1525.429932 666.902222,1545.795654 
	C676.426086,1555.173828 685.499390,1565.008301 694.964600,1574.447754 
	C702.410339,1581.873169 710.167297,1588.985718 717.739441,1596.285645 
	C721.283264,1599.702026 727.764709,1601.154175 732.455383,1598.769897 
	C736.908020,1596.506470 739.083130,1592.715698 739.081909,1587.365356 
	C739.011353,1278.078369 739.019226,968.791321 739.018921,659.504333 
	C739.018921,654.688477 735.967896,650.628906 730.112976,648.750366 
	C725.532410,647.280701 720.705566,647.900024 717.294312,651.389893 
	C708.690369,660.192505 700.543640,669.439819 692.062012,678.364807 
	C671.014771,700.512085 649.872009,722.568420 628.789124,744.681824 
	C615.947021,758.151611 603.163879,771.677429 590.320068,785.145508 
	C575.892517,800.274292 561.405884,815.346680 546.983582,830.480408 
	C534.457153,843.624817 522.007019,856.841980 509.483063,869.988770 
	C488.728790,891.775330 467.981689,913.568970 447.154053,935.285278 
	C435.492188,947.444641 423.561249,959.346985 411.955231,971.558716 
	C397.211243,987.072205 382.700836,1002.807495 368.035889,1018.396484 
	C360.749054,1026.142334 353.323517,1033.757690 345.992981,1041.462646 
	C333.388245,1054.711426 320.833862,1068.008179 308.212341,1081.240967 
	C293.149506,1097.033447 278.039429,1112.780762 262.947479,1128.545410 
	C258.847351,1132.828247 258.829498,1142.311157 262.944397,1146.470215 
	C265.980469,1149.538818 269.015106,1152.609985 272.106049,1155.623047 
	C284.120087,1167.333618 296.229797,1178.947144 308.164948,1190.737427 
	C321.679474,1204.087769 335.044861,1217.589233 348.975128,1231.524902 
z"/>
<path fill="#001F5D" opacity="1.000000" stroke="none" 
	d="
M348.725128,1231.274902 
	C335.044861,1217.589233 321.679474,1204.087769 308.164948,1190.737427 
	C296.229797,1178.947144 284.120087,1167.333618 272.106049,1155.623047 
	C269.015106,1152.609985 265.980469,1149.538818 262.944397,1146.470215 
	C258.829498,1142.311157 258.847351,1132.828247 262.947479,1128.545410 
	C278.039429,1112.780762 293.149506,1097.033447 308.212341,1081.240967 
	C320.833862,1068.008179 333.388245,1054.711426 345.992981,1041.462646 
	C353.323517,1033.757690 360.749054,1026.142334 368.035889,1018.396484 
	C382.700836,1002.807495 397.211243,987.072205 411.955231,971.558716 
	C423.561249,959.346985 435.492188,947.444641 447.154053,935.285278 
	C467.981689,913.568970 488.728790,891.775330 509.483063,869.988770 
	C522.007019,856.841980 534.457153,843.624817 546.983582,830.480408 
	C561.405884,815.346680 575.892517,800.274292 590.320068,785.145508 
	C603.163879,771.677429 615.947021,758.151611 628.789124,744.681824 
	C649.872009,722.568420 671.014771,700.512085 692.062012,678.364807 
	C700.543640,669.439819 708.690369,660.192505 717.294312,651.389893 
	C720.705566,647.900024 725.532410,647.280701 730.112976,648.750366 
	C735.967896,650.628906 739.018921,654.688477 739.018921,659.504333 
	C739.019226,968.791321 739.011353,1278.078369 739.081909,1587.365356 
	C739.083130,1592.715698 736.908020,1596.506470 732.455383,1598.769897 
	C727.764709,1601.154175 721.283264,1599.702026 717.739441,1596.285645 
	C710.167297,1588.985718 702.410339,1581.873169 694.964600,1574.447754 
	C685.499390,1565.008301 676.426086,1555.173828 666.902222,1545.795654 
	C646.220154,1525.429932 625.305481,1505.300537 604.602905,1484.955322 
	C598.028259,1478.494263 591.969177,1471.509888 585.424927,1465.016113 
	C558.357178,1438.157104 531.222900,1411.364746 504.052490,1384.609253 
	C492.175476,1372.913696 480.040924,1361.478516 468.219635,1349.727661 
	C443.252258,1324.909058 418.472473,1299.901611 393.500763,1275.087402 
	C378.772583,1260.452148 363.824371,1246.038330 348.725128,1231.274902 
M420.769531,1298.730835 
	C437.046753,1314.724243 453.370392,1330.670776 469.591919,1346.720459 
	C507.359833,1384.088501 545.071838,1421.513062 582.819458,1458.901611 
	C614.770203,1490.548706 646.750671,1522.165649 678.694214,1553.820068 
	C691.833679,1566.840698 704.865051,1579.970337 718.033936,1592.960938 
	C725.392273,1600.219482 734.421448,1598.138672 736.908691,1588.645508 
	C737.444031,1586.602783 737.249268,1584.346680 737.249512,1582.188843 
	C737.262878,1449.366699 737.261597,1316.544434 737.261597,1183.722290 
	C737.261597,1011.070129 737.250122,838.417908 737.305969,665.765747 
	C737.308105,659.273438 736.910828,653.175476 729.710999,650.582214 
	C723.119995,648.208374 719.613953,653.225159 715.888367,657.099792 
	C702.851135,670.658325 689.931641,684.330017 676.958496,697.950256 
	C663.295471,712.294861 649.626831,726.634094 635.952515,740.967896 
	C608.263916,769.991882 580.589294,799.029297 552.868713,828.022766 
	C540.913391,840.526978 528.787537,852.868408 516.867004,865.405334 
	C502.648041,880.359497 488.633698,895.508240 474.404846,910.452942 
	C461.671936,923.826355 448.687561,936.960510 435.962219,950.341003 
	C422.889465,964.086670 410.068268,978.071350 397.007629,991.828613 
	C376.033020,1013.922058 354.953339,1035.915649 333.915405,1057.948975 
	C311.609528,1081.310181 289.320862,1104.687866 266.980804,1128.016479 
	C260.206207,1135.090820 260.140350,1139.267090 267.110504,1146.198853 
	C300.761749,1179.663940 334.417297,1213.124634 368.092834,1246.565308 
	C385.460541,1263.811890 402.873169,1281.013306 420.769531,1298.730835 
z"/>
<path fill="#0054FE" opacity="1.000000" stroke="none" 
	d="
M420.517517,1298.482910 
	C402.873169,1281.013306 385.460541,1263.811890 368.092834,1246.565308 
	C334.417297,1213.124634 300.761749,1179.663940 267.110504,1146.198853 
	C260.140350,1139.267090 260.206207,1135.090820 266.980804,1128.016479 
	C289.320862,1104.687866 311.609528,1081.310181 333.915405,1057.948975 
	C354.953339,1035.915649 376.033020,1013.922058 397.007629,991.828613 
	C410.068268,978.071350 422.889465,964.086670 435.962219,950.341003 
	C448.687561,936.960510 461.671936,923.826355 474.404846,910.452942 
	C488.633698,895.508240 502.648041,880.359497 516.867004,865.405334 
	C528.787537,852.868408 540.913391,840.526978 552.868713,828.022766 
	C580.589294,799.029297 608.263916,769.991882 635.952515,740.967896 
	C649.626831,726.634094 663.295471,712.294861 676.958496,697.950256 
	C689.931641,684.330017 702.851135,670.658325 715.888367,657.099792 
	C719.613953,653.225159 723.119995,648.208374 729.710999,650.582214 
	C736.910828,653.175476 737.308105,659.273438 737.305969,665.765747 
	C737.250122,838.417908 737.261597,1011.070129 737.261597,1183.722290 
	C737.261597,1316.544434 737.262878,1449.366699 737.249512,1582.188843 
	C737.249268,1584.346680 737.444031,1586.602783 736.908691,1588.645508 
	C734.421448,1598.138672 725.392273,1600.219482 718.033936,1592.960938 
	C704.865051,1579.970337 691.833679,1566.840698 678.694214,1553.820068 
	C646.750671,1522.165649 614.770203,1490.548706 582.819458,1458.901611 
	C545.071838,1421.513062 507.359833,1384.088501 469.591919,1346.720459 
	C453.370392,1330.670776 437.046753,1314.724243 420.517517,1298.482910 
z"/>
</svg>