<svg version="1.1" id="Layer_1" xmlns="http://www.w3.org/2000/svg" xmlns:xlink="http://www.w3.org/1999/xlink" x="0px" y="0px"
	 width="100%" viewBox="0 0 1500 2250"  xml:space="preserve">
<path opacity="0.000000" stroke="none" 
	d="
M447.000000,2251.000000 
	C298.000000,2251.000000 149.500000,2251.000000 1.000000,2251.000000 
	C1.000000,1501.000000 1.000000,751.000000 1.000000,1.000000 
	C501.000000,1.000000 1001.000000,1.000000 1501.000000,1.000000 
	C1501.000000,751.000000 1501.000000,1501.000000 1501.000000,2251.000000 
	C1149.833374,2251.000000 798.666687,2251.000000 447.000000,2251.000000 
M1064.207031,1310.186035 
	C1064.207031,1310.186035 1064.451294,1309.828491 1065.090820,1309.899170 
	C1066.330078,1309.165527 1067.766724,1308.636475 1068.775024,1307.663452 
	C1073.633667,1302.974365 1078.384644,1298.173218 1083.159790,1293.397949 
	C1101.520874,1275.036865 1119.826904,1256.620239 1138.257812,1238.329468 
	C1146.099609,1230.547119 1154.325317,1223.151245 1162.156494,1215.358643 
	C1185.168091,1192.460327 1208.068481,1169.450195 1231.015015,1146.486450 
	C1235.821411,1141.676147 1236.724854,1135.517822 1232.409180,1130.008057 
	C1227.364990,1123.568237 1221.821533,1117.474365 1216.088013,1111.629150 
	C1204.394531,1099.708130 1192.428711,1088.054443 1180.127197,1075.696411 
	C1178.029419,1073.787964 1175.931641,1071.879395 1173.963257,1069.223999 
	C1172.324585,1067.208618 1170.794800,1065.092163 1169.029785,1063.194214 
	C1156.231567,1049.432861 1143.488403,1035.617798 1130.525879,1022.012085 
	C1117.856079,1008.713684 1104.890137,995.698059 1092.159912,982.456543 
	C1080.386963,970.210754 1068.711792,957.870056 1057.073975,945.495544 
	C1048.751465,936.646240 1040.656738,927.581970 1032.288574,918.776794 
	C1022.209106,908.171082 1011.921204,897.763733 1001.773071,887.222778 
	C993.020996,878.132141 984.297852,869.012878 975.636902,859.835510 
	C967.469055,851.180664 959.477112,842.359070 951.270203,833.741882 
	C929.557556,810.943359 907.794006,788.193176 885.996765,765.475464 
	C880.470581,759.716064 874.628601,754.258667 869.129700,748.474304 
	C852.580933,731.066711 836.141663,713.555115 819.631042,696.111084 
	C816.174683,692.459351 812.545227,688.971619 809.083435,685.324829 
	C798.699463,674.385864 788.428101,663.339050 777.968384,652.473328 
	C773.575989,647.910583 768.256958,645.078308 761.884277,648.091980 
	C756.043152,650.854187 753.904785,655.912720 753.906006,662.367188 
	C753.964661,969.689758 753.957275,1277.012329 753.957336,1584.334961 
	C753.957336,1585.334961 753.909302,1586.337524 753.964478,1587.334473 
	C754.413513,1595.452271 759.313660,1599.878418 767.460693,1600.088013 
	C772.582581,1600.219727 776.018860,1597.477417 779.300354,1594.240234 
	C805.377319,1568.517334 831.434753,1542.774658 857.498596,1517.038330 
	C884.322693,1490.551636 911.167175,1464.085327 937.961853,1437.568726 
	C949.379822,1426.269165 960.696289,1414.867065 972.053772,1403.506470 
	C995.147888,1380.406250 1018.234253,1357.298462 1041.342651,1334.212524 
	C1042.495972,1333.060303 1043.963257,1332.209106 1045.050049,1331.006104 
	C1050.033691,1325.488892 1054.933960,1319.896484 1060.486084,1313.987427 
	C1060.768311,1313.612793 1061.050415,1313.238281 1061.920044,1312.879639 
	C1062.561035,1312.059937 1063.202026,1311.240356 1064.207031,1310.186035 
z"/>
<path fill="#0054FF" opacity="1.000000" stroke="none" 
	d="
M1173.833862,1069.970947 
	C1175.931641,1071.879395 1178.029419,1073.787964 1180.309204,1076.299805 
	C1181.345215,1078.268677 1181.996460,1079.827148 1183.084106,1080.970581 
	C1197.759888,1096.399780 1212.477417,1111.789673 1227.226440,1127.149048 
	C1234.366577,1134.584717 1234.388062,1139.859497 1227.009033,1147.151855 
	C1203.445557,1170.438843 1179.796143,1193.639282 1156.286499,1216.980469 
	C1126.624268,1246.430054 1097.058838,1275.977173 1067.492432,1305.523071 
	C1066.267578,1306.746948 1065.455688,1308.383911 1064.451294,1309.828491 
	C1064.451294,1309.828491 1064.207031,1310.186035 1063.743164,1310.282349 
	C1062.630371,1311.207031 1061.981567,1312.035278 1061.332642,1312.863647 
	C1061.050415,1313.238281 1060.768311,1313.612793 1059.860474,1314.189575 
	C1053.040283,1320.117676 1046.687134,1325.682617 1040.678101,1331.597290 
	C1012.066467,1359.759155 983.532959,1388.000610 955.000977,1416.243408 
	C919.363220,1451.519897 883.728760,1486.799805 848.141724,1522.127441 
	C824.845337,1545.253662 801.649780,1568.481689 778.361328,1591.616089 
	C776.370178,1593.594116 774.264282,1596.032227 771.770020,1596.776489 
	C768.908264,1597.630493 765.231689,1597.656372 762.481873,1596.579468 
	C757.046448,1594.450684 756.457031,1589.442749 756.458191,1584.076904 
	C756.526367,1277.307251 756.518799,970.537537 756.518921,663.767822 
	C756.518921,662.934692 756.563477,662.099182 756.516785,661.268738 
	C756.213440,655.875061 759.073486,652.340881 763.626831,650.296692 
	C768.081177,648.296814 772.071045,649.727173 775.361450,653.221863 
	C780.380981,658.552856 785.383667,663.900024 790.435486,669.200378 
	C811.222412,691.009521 832.032349,712.796814 852.820129,734.605225 
	C872.688477,755.449036 892.527222,776.320984 912.402100,797.158630 
	C939.164673,825.217712 965.969299,853.236816 992.718140,881.309021 
	C1012.922241,902.512817 1033.036987,923.801697 1053.246704,945.000122 
	C1075.415039,968.253235 1097.668213,991.425598 1119.842041,1014.673462 
	C1131.214233,1026.596313 1142.395386,1038.702759 1153.854736,1050.540527 
	C1160.312988,1057.212280 1167.161255,1063.506592 1173.833862,1069.970947 
z"/>
<path fill="#002060" opacity="1.000000" stroke="none" 
	d="
M1173.898560,1069.597412 
	C1167.161255,1063.506592 1160.312988,1057.212280 1153.854736,1050.540527 
	C1142.395386,1038.702759 1131.214233,1026.596313 1119.842041,1014.673462 
	C1097.668213,991.425598 1075.415039,968.253235 1053.246704,945.000122 
	C1033.036987,923.801697 1012.922241,902.512817 992.718140,881.309021 
	C965.969299,853.236816 939.164673,825.217712 912.402100,797.158630 
	C892.527222,776.320984 872.688477,755.449036 852.820129,734.605225 
	C832.032349,712.796814 811.222412,691.009521 790.435486,669.200378 
	C785.383667,663.900024 780.380981,658.552856 775.361450,653.221863 
	C772.071045,649.727173 768.081177,648.296814 763.626831,650.296692 
	C759.073486,652.340881 756.213440,655.875061 756.516785,661.268738 
	C756.563477,662.099182 756.518921,662.934692 756.518921,663.767822 
	C756.518799,970.537537 756.526367,1277.307251 756.458191,1584.076904 
	C756.457031,1589.442749 757.046448,1594.450684 762.481873,1596.579468 
	C765.231689,1597.656372 768.908264,1597.630493 771.770020,1596.776489 
	C774.264282,1596.032227 776.370178,1593.594116 778.361328,1591.616089 
	C801.649780,1568.481689 824.845337,1545.253662 848.141724,1522.127441 
	C883.728760,1486.799805 919.363220,1451.519897 955.000977,1416.243408 
	C983.532959,1388.000610 1012.066467,1359.759155 1040.678101,1331.597290 
	C1046.687134,1325.682617 1053.040283,1320.117676 1059.549561,1314.361328 
	C1054.933960,1319.896484 1050.033691,1325.488892 1045.050049,1331.006104 
	C1043.963257,1332.209106 1042.495972,1333.060303 1041.342651,1334.212524 
	C1018.234253,1357.298462 995.147888,1380.406250 972.053772,1403.506470 
	C960.696289,1414.867065 949.379822,1426.269165 937.961853,1437.568726 
	C911.167175,1464.085327 884.322693,1490.551636 857.498596,1517.038330 
	C831.434753,1542.774658 805.377319,1568.517334 779.300354,1594.240234 
	C776.018860,1597.477417 772.582581,1600.219727 767.460693,1600.088013 
	C759.313660,1599.878418 754.413513,1595.452271 753.964478,1587.334473 
	C753.909302,1586.337524 753.957336,1585.334961 753.957336,1584.334961 
	C753.957275,1277.012329 753.964661,969.689758 753.906006,662.367188 
	C753.904785,655.912720 756.043152,650.854187 761.884277,648.091980 
	C768.256958,645.078308 773.575989,647.910583 777.968384,652.473328 
	C788.428101,663.339050 798.699463,674.385864 809.083435,685.324829 
	C812.545227,688.971619 816.174683,692.459351 819.631042,696.111084 
	C836.141663,713.555115 852.580933,731.066711 869.129700,748.474304 
	C874.628601,754.258667 880.470581,759.716064 885.996765,765.475464 
	C907.794006,788.193176 929.557556,810.943359 951.270203,833.741882 
	C959.477112,842.359070 967.469055,851.180664 975.636902,859.835510 
	C984.297852,869.012878 993.020996,878.132141 1001.773071,887.222778 
	C1011.921204,897.763733 1022.209106,908.171082 1032.288574,918.776794 
	C1040.656738,927.581970 1048.751465,936.646240 1057.073975,945.495544 
	C1068.711792,957.870056 1080.386963,970.210754 1092.159912,982.456543 
	C1104.890137,995.698059 1117.856079,1008.713684 1130.525879,1022.012085 
	C1143.488403,1035.617798 1156.231567,1049.432861 1169.029785,1063.194214 
	C1170.794800,1065.092163 1172.324585,1067.208618 1173.898560,1069.597412 
z"/>
<path fill="#002060" opacity="1.000000" stroke="none" 
	d="
M1064.770996,1309.863770 
	C1065.455688,1308.383911 1066.267578,1306.746948 1067.492432,1305.523071 
	C1097.058838,1275.977173 1126.624268,1246.430054 1156.286499,1216.980469 
	C1179.796143,1193.639282 1203.445557,1170.438843 1227.009033,1147.151855 
	C1234.388062,1139.859497 1234.366577,1134.584717 1227.226440,1127.149048 
	C1212.477417,1111.789673 1197.759888,1096.399780 1183.084106,1080.970581 
	C1181.996460,1079.827148 1181.345215,1078.268677 1180.533203,1076.596802 
	C1192.428711,1088.054443 1204.394531,1099.708130 1216.088013,1111.629150 
	C1221.821533,1117.474365 1227.364990,1123.568237 1232.409180,1130.008057 
	C1236.724854,1135.517822 1235.821411,1141.676147 1231.015015,1146.486450 
	C1208.068481,1169.450195 1185.168091,1192.460327 1162.156494,1215.358643 
	C1154.325317,1223.151245 1146.099609,1230.547119 1138.257812,1238.329468 
	C1119.826904,1256.620239 1101.520874,1275.036865 1083.159790,1293.397949 
	C1078.384644,1298.173218 1073.633667,1302.974365 1068.775024,1307.663452 
	C1067.766724,1308.636475 1066.330078,1309.165527 1064.770996,1309.863770 
z"/>
<path fill="#002060" opacity="1.000000" stroke="none" 
	d="
M1061.626343,1312.871582 
	C1061.981567,1312.035278 1062.630371,1311.207031 1063.561035,1310.399658 
	C1063.202026,1311.240356 1062.561035,1312.059937 1061.626343,1312.871582 
z"/>
</svg>